<svg width="343" height="56" viewBox="0 0 343 56" fill="none" xmlns="http://www.w3.org/2000/svg">
<path d="M74.0574 38.4068L1.89676 38.5711L25.0227 0.5L338.5 0.501982V17.9437L299.441 53.8703L89.3722 53.7995L74.0574 38.4068Z" fill="black"/>
<path d="M71.707 44.6873L79.7607 52.741L77.6396 54.8621L70.4648 47.6873H0.5V44.6873H71.707Z" fill="black"/>
<path d="M308.521 54.8009L306.478 52.6036L340.022 21.4044L342.065 23.6017L308.521 54.8009Z" fill="black"/>
<path d="M74.0574 38.4068L1.89676 38.5711L25.0227 0.5L338.5 0.501982V17.9437L299.441 53.8703L89.3722 53.7995L74.0574 38.4068Z" stroke="black"/>
<path d="M71.707 44.6873L79.7607 52.741L77.6396 54.8621L70.4648 47.6873H0.5V44.6873H71.707Z" stroke="black"/>
<path d="M308.521 54.8009L306.478 52.6036L340.022 21.4044L342.065 23.6017L308.521 54.8009Z" stroke="black"/>
</svg>
